<svg xmlns="http://www.w3.org/2000/svg" xml:space="preserve" version="1.1" y="0px" x="0px" viewBox="0 0 394.31506 135.46907" width="150px" height="52px"><g style="fill:#d51007" transform="translate(-100.08 -131.53)"><path style="fill:#d51007" d="m133.1 148.3c18.3 0 28.3 6.8 33 17.1 1.4 2.8.6 4.4-1.9 5.5l-5.4 2.2c-2.8 1.3-3.6.8-5.2-1.7-3-6.2-8.1-10.3-20.2-10.3-12.2 0-18 3.8-18 11.4 0 10.1 8.4 11.4 21.5 12.5 18 1.7 31.3 5.7 31.3 24.3 0 15-10.9 25.3-33 25.3-18 0-29.7-6.5-34.6-19.4-1.1-2.5-.5-4.1 2.4-5.1l5.4-1.9c2.5-.8 3.8-.5 5.1 2.4 3.2 8.2 10.3 11.4 21.3 11.4 13.4 0 19.8-4.3 19.8-12 0-9.5-7.7-11.2-21-12.5-15.8-1.6-32.1-4.3-32.1-24.6-.1-14.8 10.6-24.6 31.6-24.6z"/><path style="fill:#d51007" d="m218.6 148.3c22.6 0 33 11.5 33 31.8v22.3c0 20.5-10.7 32.2-33.7 32.2-9 0-16.4-2.8-20.5-4.3v32.9c0 2.8-.9 3.8-3.8 3.8h-6.6c-2.7 0-3.6-.9-3.6-3.8v-101.3c0-5.2 1.1-7 6.2-9 6.1-2.4 15.3-4.6 29-4.6zm-2 12.9c-7 0-12.5 1.1-16.7 2.4-2.1.9-2.4 1.4-2.4 3.3v50.6c3.6 1.3 11.1 4.1 19.4 4.1 14.2 0 20.5-6.6 20.5-19.8v-21.3c0-12.6-6.9-19.3-20.8-19.3z"/><path style="fill:#d51007" d="m301.6 148.3c22.8 0 35.6 11.5 35.6 30.3v25.8c0 18.6-12.8 30.2-35.6 30.2-22.3 0-35.4-11.5-35.4-30.2v-25.8c0-18.8 13.1-30.3 35.4-30.3zm0 12.8c-13.3 0-21.3 6.5-21.3 17.4v25.9c0 10.9 8.1 17.4 21.3 17.4 13.4 0 21.5-6.5 21.5-17.4v-25.9c0-11-8.1-17.4-21.5-17.4z"/><path style="fill:#d51007" d="m375.7 135.5v15.2h20.7c2.7 0 3.6.9 3.6 3.8v5.5c0 2.8-.9 3.8-3.6 3.8h-20.7v36.8c0 17.2 5.1 20.5 20.4 20.5 3 0 3.9.8 3.9 3.8v5.7c0 2.8-.9 3.6-3.9 3.8-25.1.6-34.4-7.1-34.4-33.5v-37.1h-13.1c-2.8 0-3.8-.9-3.8-3.8v-5.5c0-2.8.9-3.8 3.8-3.8h13.1v-15.2c0-2.8.8-3.8 3.6-3.8h6.6c2.8 0 3.8.9 3.8 3.8z"/></g><g style="fill:#d51007" transform="translate(-100.08 -131.53)"><path style="fill:#d51007" d="m417.4 230v.5c0 2.9-.9 3.8-3.8 3.8h-.4c-2.9 0-3.8-.9-3.8-3.8v-.5c0-2.9.9-3.8 3.8-3.8h.4c2.9-.1 3.8.9 3.8 3.8z"/><path style="fill:#d51007" d="m446.3 183v3.2c0 1.7-.6 2.3-2.3 2.3-6 0-8.1 2.1-8.1 7.5v.7h8.3c1.7 0 2.2.5 2.2 2.2v3.3c0 1.7-.5 2.2-2.2 2.2h-8.3v27.4c0 1.7-.5 2.2-2.2 2.2h-3.8c-1.7 0-2.3-.6-2.3-2.2v-27.4h-4.3c-1.7 0-2.2-.6-2.2-2.2v-3.3c0-1.7.5-2.2 2.2-2.2h4.3v-.7c0-9.9 5-15 15.8-15.3h.6c1.7 0 2.3.5 2.3 2.3z"/><path style="fill:#d51007" d="m482.6 202c8.2 0 11.8 4.4 11.8 11.9v18.2c0 1.4-.4 1.9-1.8 1.9h-3.3c-1.4 0-1.9-.5-1.9-1.9v-17.9c0-3.8-1.9-5.8-5.8-5.8-2.4 0-4.4.6-5.8 1.1.5 1.3.7 2.8.7 4.5v18.2c0 1.4-.5 1.9-1.9 1.9h-3.2c-1.4 0-1.9-.5-1.9-1.9v-17.9c0-3.8-2-5.8-5.9-5.8-1.9 0-3.3.2-4.8.7-.4.2-.5.4-.5.7v22.3c0 1.4-.4 1.9-1.8 1.9h-3.3c-1.4 0-1.9-.5-1.9-1.9v-24.7c0-1.9.5-2.6 2.3-3.4 2.3-1 5.6-2 10.9-2 3.2 0 5.6.7 7.4 2 2.2-1 5.5-2.1 10.7-2.1z"/></g><g style="fill:#d51007" transform="translate(-100.08 -131.53)"><g style="fill:#d51007"><path style="fill:#d51007" class="st0" d="m419.7 136.8c-.3-.8 0-1.6.8-1.9 15.5-5.9 32.9-4 46.8 5.3 13.6 9 22.1 24 22.9 40.3 0 .8-.6 1.5-1.4 1.5s-1.4-.6-1.5-1.4c-.8-15.3-8.8-29.4-21.6-37.9-13.1-8.7-29.4-10.5-44.1-5-.8.2-1.6-.1-1.9-.9z"/></g></g><g style="fill:#d51007" transform="translate(-100.08 -131.53)"><g style="fill:#d51007"><path style="fill:#d51007" class="st0" d="m426.2 148.9c-.2-.6 0-1.2.6-1.4 11.1-4.2 23.6-2.8 33.5 3.8 9.8 6.5 15.9 17.2 16.5 28.9 0 .6-.4 1.1-1 1.1s-1-.4-1.1-1c-.6-11-6.3-21.1-15.5-27.2-9.4-6.2-21.1-7.5-31.6-3.6-.6.2-1.2-.1-1.4-.6z"/></g></g><g style="fill:#d51007" transform="translate(-100.08 -131.53)"><g style="fill:#d51007"><path style="fill:#d51007" class="st1" d="m434.2 162.4c-.1-.3 0-.7.3-.8 6.4-2.4 13.5-1.6 19.2 2.2 5.6 3.7 9.1 9.9 9.4 16.6 0 .3-.3.6-.6.6s-.6-.2-.6-.6c-.3-6.3-3.6-12.1-8.9-15.6-5.4-3.6-12.1-4.3-18.1-2-.3 0-.6-.1-.7-.4z"/></g></g></svg>
